<svg width="21" height="20" viewBox="0 0 21 20" fill="none" xmlns="http://www.w3.org/2000/svg">
<path d="M10.5 20C9.5915 20 8.71405 19.8807 7.86765 19.6422C7.02124 19.4036 6.22549 19.0637 5.48039 18.6225C4.73529 18.1814 4.05882 17.6569 3.45098 17.049C2.84314 16.4412 2.31863 15.7647 1.87745 15.0196C1.43628 14.2745 1.09641 13.4788 0.857843 12.6324C0.619281 11.7859 0.5 10.9085 0.5 10C0.5 9.08497 0.619281 8.20588 0.857843 7.36274C1.09641 6.51961 1.43464 5.72549 1.87255 4.98039C2.31046 4.23529 2.83333 3.55882 3.44118 2.95098C4.04902 2.34314 4.72549 1.81863 5.47059 1.37745C6.21569 0.936274 7.01144 0.596405 7.85784 0.357841C8.70425 0.11928 9.5817 0 10.4902 0C11.4052 0 12.2859 0.11928 13.1324 0.357841C13.9788 0.596405 14.7729 0.936274 15.5147 1.37745C16.2565 1.81863 16.933 2.34314 17.5441 2.95098C18.1552 3.55882 18.6814 4.23529 19.1225 4.98039C19.5637 5.72549 19.9036 6.51961 20.1422 7.36274C20.3807 8.20588 20.5 9.08497 20.5 10C20.5 10.9085 20.3807 11.7859 20.1422 12.6324C19.9036 13.4788 19.5637 14.2745 19.1225 15.0196C18.6814 15.7647 18.1569 16.4412 17.549 17.049C16.9412 17.6569 16.2647 18.1814 15.5196 18.6225C14.7745 19.0637 13.9804 19.4036 13.1373 19.6422C12.2941 19.8807 11.415 20 10.5 20ZM10.5 18.3333C11.4281 18.3333 12.3088 18.1944 13.1422 17.9167C13.9755 17.6389 14.7386 17.2451 15.4314 16.7353C16.1242 16.2255 16.7255 15.6242 17.2353 14.9314C17.7451 14.2386 18.1389 13.4755 18.4167 12.6422C18.6944 11.8088 18.8333 10.9281 18.8333 10C18.8333 9.07189 18.6928 8.19118 18.4118 7.35784C18.1307 6.52451 17.7353 5.76144 17.2255 5.06863C16.7157 4.37582 16.1144 3.77451 15.4216 3.26471C14.7288 2.7549 13.9657 2.36111 13.1324 2.08333C12.299 1.80556 11.4183 1.66667 10.4902 1.66667C9.56209 1.66667 8.68301 1.80556 7.85294 2.08333C7.02288 2.36111 6.26144 2.7549 5.56863 3.26471C4.87582 3.77451 4.27614 4.37582 3.76961 5.06863C3.26307 5.76144 2.87092 6.52451 2.59314 7.35784C2.31536 8.19118 2.17647 9.07189 2.17647 10C2.17647 10.9281 2.31536 11.8088 2.59314 12.6422C2.87092 13.4755 3.26307 14.2386 3.76961 14.9314C4.27614 15.6242 4.87582 16.2255 5.56863 16.7353C6.26144 17.2451 7.02451 17.6389 7.85784 17.9167C8.69118 18.1944 9.5719 18.3333 10.5 18.3333ZM8.77451 13.6078C8.63072 13.6928 8.48856 13.7304 8.34804 13.7206C8.20752 13.7108 8.08987 13.6601 7.9951 13.5686C7.90033 13.4771 7.85294 13.3595 7.85294 13.2157V6.79412C7.85294 6.64379 7.90196 6.52614 8 6.44118C8.09804 6.35621 8.21895 6.30882 8.36275 6.29902C8.50654 6.28922 8.64379 6.32353 8.77451 6.40196L14.0294 9.5098C14.1536 9.5817 14.2369 9.68137 14.2794 9.80882C14.3219 9.93627 14.3235 10.0637 14.2843 10.1912C14.2451 10.3186 14.1601 10.4216 14.0294 10.5L8.77451 13.6078Z" fill="#2997FF"/>
</svg>
